<svg width="393" height="146" viewBox="0 0 393 146" fill="none" xmlns="http://www.w3.org/2000/svg">
<path d="M18.48 5.68V12.336C18.992 12.32 19.664 12.256 20.368 12.096L20.48 13.184C19.328 13.456 18.416 13.456 17.84 13.456H17.28V4.624H20.192V5.68H18.48ZM22.048 5.68V12.32C22.752 12.288 23.568 12.208 24.448 11.984L24.576 13.072C23.36 13.392 22.336 13.408 21.456 13.408H20.864V4.624H24.128V5.68H22.048ZM25.328 8.224V3.168H26.528V16.432H25.328V9.296H23.232V8.224H25.328ZM27.968 2.832H29.216V17.168H27.968V2.832ZM34.9908 12.784C36.3668 12.784 37.3428 11.28 37.3428 8.944C37.3428 6.624 36.3668 5.12 34.9908 5.12C33.5988 5.12 32.6228 6.624 32.6228 8.944C32.6228 11.28 33.5988 12.784 34.9908 12.784ZM34.9908 3.936C37.1028 3.936 38.5908 5.888 38.5908 8.944C38.5908 12 37.1028 13.952 34.9908 13.952C32.8788 13.952 31.3748 12 31.3748 8.944C31.3748 5.888 32.8788 3.936 34.9908 3.936ZM44.5748 8.56V9.664H42.2068V17.184H40.8948V2.848H42.2068V8.56H44.5748ZM57.4535 9.872V10.928H52.2855V4.336H57.3095V5.408H53.5975V9.872H57.4535ZM51.6295 9.472L51.7415 10.528C50.1895 10.88 48.8775 10.928 47.4375 10.928H46.6535V4.368H51.5015V5.424H47.9655V9.856C49.1815 9.84 50.3175 9.76 51.6295 9.472ZM45.4855 14.144H58.4935V15.232H45.4855V14.144ZM69.9323 7.216V4.992H61.3882V3.936H71.2122V8.272H62.7162V10.608H71.5483V11.68H61.4202V7.216H69.9323ZM59.7882 14.288H72.8282V15.376H59.7882V14.288ZM80.4399 5.296V12.512C82.9839 12.512 84.8239 12.4 86.9039 12.032L87.0479 13.12C84.8559 13.536 82.9679 13.632 80.2639 13.632H79.1279V4.208H85.7999V5.296H80.4399ZM91.9279 8.496V9.584H89.5599V17.216H88.2479V2.832H89.5599V8.496H91.9279ZM101.287 9.248L101.415 10.32C99.1426 10.704 97.2546 10.8 94.5986 10.8H93.4626V6.656H98.5986V4.752H93.4306V3.68H99.8946V7.664H94.7586V9.728C97.2706 9.728 99.1106 9.632 101.287 9.248ZM94.6466 13.376V12.32H103.975V17.168H102.663V13.376H94.6466ZM106.103 6.512V7.6H103.975V11.568H102.663V2.848H103.975V6.512H106.103ZM123.938 9.84L123.378 10.928C121.186 10.464 118.93 8.976 118.002 6.928C117.074 8.976 114.834 10.464 112.626 10.928L112.082 9.84C114.594 9.392 117.314 7.28 117.314 4.896V3.792H118.69V4.896C118.69 7.28 121.426 9.392 123.938 9.84ZM118.658 14.24H124.578V15.312H111.554V14.24H117.346V10.752H118.658V14.24ZM127.265 13.152V12.08H137.313V17.232H136.001V13.152H127.265ZM136.849 8.88H138.897V9.936H125.873V8.88H135.537C135.905 7.024 135.921 5.68 135.921 4.592H127.537V3.52H137.217V4.496C137.217 5.6 137.217 6.992 136.849 8.88ZM148.512 9.776L147.888 10.8C146.256 10.272 145.024 9.136 144.416 7.712C143.808 9.344 142.512 10.624 140.8 11.232L140.128 10.192C142.288 9.44 143.728 7.584 143.728 5.52V4.96H140.512V3.904H148.208V4.96H145.04V5.52C145.04 7.392 146.4 9.072 148.512 9.776ZM146.768 16.128C148.88 16.128 150.176 15.536 150.176 14.512C150.176 13.504 148.88 12.912 146.768 12.912C144.624 12.912 143.344 13.504 143.344 14.512C143.344 15.536 144.624 16.128 146.768 16.128ZM146.768 11.872C149.68 11.872 151.488 12.848 151.488 14.512C151.488 16.192 149.68 17.168 146.768 17.168C143.824 17.168 142.032 16.192 142.032 14.512C142.032 12.848 143.824 11.872 146.768 11.872ZM151.328 6.464H153.456V7.568H151.328V11.504H150.016V2.848H151.328V6.464Z" fill="#040404"/>
<path d="M26 43.3333L24 42V38.6667M18 42C18 42.7879 18.1552 43.5681 18.4567 44.2961C18.7583 45.0241 19.2002 45.6855 19.7574 46.2426C20.3145 46.7998 20.9759 47.2417 21.7039 47.5433C22.4319 47.8448 23.2121 48 24 48C24.7879 48 25.5681 47.8448 26.2961 47.5433C27.0241 47.2417 27.6855 46.7998 28.2426 46.2426C28.7998 45.6855 29.2417 45.0241 29.5433 44.2961C29.8448 43.5681 30 42.7879 30 42C30 41.2121 29.8448 40.4319 29.5433 39.7039C29.2417 38.9759 28.7998 38.3145 28.2426 37.7574C27.6855 37.2002 27.0241 36.7583 26.2961 36.4567C25.5681 36.1552 24.7879 36 24 36C23.2121 36 22.4319 36.1552 21.7039 36.4567C20.9759 36.7583 20.3145 37.2002 19.7574 37.7574C19.2002 38.3145 18.7583 38.9759 18.4567 39.7039C18.1552 40.4319 18 41.2121 18 42Z" stroke="#FF7D0A" stroke-width="1.5" stroke-linecap="round" stroke-linejoin="round"/>
<path d="M45.496 37.192C43.852 37.192 42.76 37.708 42.76 38.56C42.76 39.4 43.852 39.916 45.496 39.916C47.152 39.916 48.232 39.4 48.232 38.56C48.232 37.708 47.152 37.192 45.496 37.192ZM45.496 40.72C43.216 40.72 41.728 39.892 41.728 38.56C41.728 37.228 43.216 36.4 45.496 36.4C47.776 36.4 49.264 37.228 49.264 38.56C49.264 39.892 47.776 40.72 45.496 40.72ZM42.856 43.504V45.832H49.312V46.648H41.872V43.504H42.856ZM40.624 41.584H50.38V42.388H46.084V44.56H45.088V42.388H40.624V41.584ZM52.4791 39.316C52.4791 40.324 53.2711 41.044 54.3151 41.044C55.3711 41.044 56.1391 40.324 56.1391 39.316C56.1391 38.32 55.3711 37.6 54.3151 37.6C53.2711 37.6 52.4791 38.32 52.4791 39.316ZM59.2471 38.476H56.9431C57.0271 38.728 57.0751 39.004 57.0751 39.316C57.0751 39.616 57.0271 39.892 56.9311 40.156H59.2471V38.476ZM59.2471 40.96H56.4871C55.9951 41.536 55.2271 41.884 54.3151 41.884C52.7191 41.884 51.5431 40.828 51.5431 39.316C51.5431 37.816 52.7191 36.772 54.3151 36.772C55.2271 36.772 55.9951 37.12 56.4871 37.672H59.2471V36.124H60.2431V42.496H59.2471V40.96ZM56.6791 46.096C58.3231 46.096 59.3071 45.616 59.3071 44.812C59.3071 43.996 58.3231 43.516 56.6791 43.516C55.0591 43.516 54.0751 43.996 54.0751 44.812C54.0751 45.616 55.0591 46.096 56.6791 46.096ZM56.6791 42.748C58.8991 42.748 60.2791 43.504 60.2791 44.812C60.2791 46.12 58.8991 46.876 56.6791 46.876C54.4711 46.876 53.1031 46.12 53.1031 44.812C53.1031 43.504 54.4711 42.748 56.6791 42.748ZM65.9301 37.06V38.992C65.9301 40.96 67.2141 42.94 68.8101 43.66L68.2221 44.452C66.9981 43.852 65.9661 42.58 65.4501 41.044C64.9581 42.664 63.9261 44.008 62.6661 44.656L62.0661 43.852C63.6501 43.096 64.9581 41.032 64.9581 38.992V37.06H65.9301ZM69.9381 36.124H70.9221V46.912H69.9381V36.124ZM73.3092 36.964H78.3252C78.3252 39.748 76.3692 41.788 73.2732 42.76L72.8772 41.98C75.4092 41.188 77.0652 39.664 77.2692 37.768H73.3092V36.964ZM75.4812 43.192V45.844H81.6732V46.648H74.4972V43.192H75.4812ZM81.2052 39.4H82.7892V40.216H81.2052V43.996H80.2212V36.136H81.2052V39.4ZM88.0539 41.224C87.8379 41.224 87.6499 41.144 87.4899 40.984C87.3299 40.824 87.2499 40.636 87.2499 40.42C87.2499 40.172 87.3219 39.976 87.4659 39.832C87.6099 39.688 87.8059 39.616 88.0539 39.616C88.2619 39.616 88.4459 39.696 88.6059 39.856C88.7739 40.016 88.8579 40.204 88.8579 40.42C88.8579 40.66 88.7819 40.856 88.6299 41.008C88.4779 41.152 88.2859 41.224 88.0539 41.224ZM88.0539 46.144C87.8379 46.144 87.6499 46.064 87.4899 45.904C87.3299 45.744 87.2499 45.556 87.2499 45.34C87.2499 45.092 87.3219 44.896 87.4659 44.752C87.6099 44.608 87.8059 44.536 88.0539 44.536C88.2619 44.536 88.4459 44.616 88.6059 44.776C88.7739 44.936 88.8579 45.124 88.8579 45.34C88.8579 45.58 88.7819 45.776 88.6299 45.928C88.4779 46.072 88.2859 46.144 88.0539 46.144ZM94.5772 46V45.04H96.2932V38.98L94.6852 40.192L94.0972 39.388L96.5812 37.6H97.3732V45.04H98.8012V46H94.5772ZM103.333 46.144C102.397 46.144 101.685 45.764 101.197 45.004C100.709 44.236 100.465 43.164 100.465 41.788C100.465 40.404 100.713 39.336 101.209 38.584C101.713 37.832 102.429 37.456 103.357 37.456C104.293 37.456 105.005 37.836 105.493 38.596C105.981 39.356 106.225 40.428 106.225 41.812C106.225 43.196 105.973 44.264 105.469 45.016C104.973 45.768 104.261 46.144 103.333 46.144ZM103.345 45.16C103.705 45.16 104.013 45.056 104.269 44.848C104.533 44.632 104.733 44.28 104.869 43.792C105.013 43.304 105.085 42.648 105.085 41.824C105.085 40.72 104.929 39.88 104.617 39.304C104.313 38.728 103.889 38.44 103.345 38.44C102.985 38.44 102.673 38.548 102.409 38.764C102.153 38.972 101.953 39.32 101.809 39.808C101.673 40.288 101.605 40.944 101.605 41.776C101.605 42.88 101.757 43.72 102.061 44.296C102.373 44.872 102.801 45.16 103.345 45.16ZM108.44 41.224C108.224 41.224 108.036 41.144 107.876 40.984C107.716 40.824 107.636 40.636 107.636 40.42C107.636 40.172 107.708 39.976 107.852 39.832C107.996 39.688 108.192 39.616 108.44 39.616C108.648 39.616 108.832 39.696 108.992 39.856C109.16 40.016 109.244 40.204 109.244 40.42C109.244 40.66 109.168 40.856 109.016 41.008C108.864 41.152 108.672 41.224 108.44 41.224ZM108.44 46.144C108.224 46.144 108.036 46.064 107.876 45.904C107.716 45.744 107.636 45.556 107.636 45.34C107.636 45.092 107.708 44.896 107.852 44.752C107.996 44.608 108.192 44.536 108.44 44.536C108.648 44.536 108.832 44.616 108.992 44.776C109.16 44.936 109.244 45.124 109.244 45.34C109.244 45.58 109.168 45.776 109.016 45.928C108.864 46.072 108.672 46.144 108.44 46.144ZM113.526 46.144C112.59 46.144 111.878 45.764 111.39 45.004C110.902 44.236 110.658 43.164 110.658 41.788C110.658 40.404 110.906 39.336 111.402 38.584C111.906 37.832 112.622 37.456 113.55 37.456C114.486 37.456 115.198 37.836 115.686 38.596C116.174 39.356 116.418 40.428 116.418 41.812C116.418 43.196 116.166 44.264 115.662 45.016C115.166 45.768 114.454 46.144 113.526 46.144ZM113.538 45.16C113.898 45.16 114.206 45.056 114.462 44.848C114.726 44.632 114.926 44.28 115.062 43.792C115.206 43.304 115.278 42.648 115.278 41.824C115.278 40.72 115.122 39.88 114.81 39.304C114.506 38.728 114.082 38.44 113.538 38.44C113.178 38.44 112.866 38.548 112.602 38.764C112.346 38.972 112.146 39.32 112.002 39.808C111.866 40.288 111.798 40.944 111.798 41.776C111.798 42.88 111.95 43.72 112.254 44.296C112.566 44.872 112.994 45.16 113.538 45.16ZM120.421 46.144C119.485 46.144 118.773 45.764 118.285 45.004C117.797 44.236 117.553 43.164 117.553 41.788C117.553 40.404 117.801 39.336 118.297 38.584C118.801 37.832 119.517 37.456 120.445 37.456C121.381 37.456 122.093 37.836 122.581 38.596C123.069 39.356 123.313 40.428 123.313 41.812C123.313 43.196 123.061 44.264 122.557 45.016C122.061 45.768 121.349 46.144 120.421 46.144ZM120.433 45.16C120.793 45.16 121.101 45.056 121.357 44.848C121.621 44.632 121.821 44.28 121.957 43.792C122.101 43.304 122.173 42.648 122.173 41.824C122.173 40.72 122.017 39.88 121.705 39.304C121.401 38.728 120.977 38.44 120.433 38.44C120.073 38.44 119.761 38.548 119.497 38.764C119.241 38.972 119.041 39.32 118.897 39.808C118.761 40.288 118.693 40.944 118.693 41.776C118.693 42.88 118.845 43.72 119.149 44.296C119.461 44.872 119.889 45.16 120.433 45.16ZM128.348 42.964C128.076 42.964 127.82 42.908 127.58 42.796C127.348 42.676 127.124 42.56 126.908 42.448C126.692 42.328 126.464 42.268 126.224 42.268C125.984 42.268 125.764 42.332 125.564 42.46C125.364 42.588 125.196 42.712 125.06 42.832L124.64 42.076C124.808 41.908 125.032 41.74 125.312 41.572C125.592 41.396 125.888 41.308 126.2 41.308C126.496 41.308 126.756 41.368 126.98 41.488C127.212 41.6 127.432 41.716 127.64 41.836C127.856 41.948 128.076 42.004 128.3 42.004C128.58 42.004 128.824 41.936 129.032 41.8C129.24 41.656 129.424 41.504 129.584 41.344L130.016 42.136C129.784 42.36 129.528 42.556 129.248 42.724C128.968 42.884 128.668 42.964 128.348 42.964ZM131.679 46C131.655 45.856 131.643 45.708 131.643 45.556C131.643 45.036 131.731 44.572 131.907 44.164C132.091 43.748 132.327 43.372 132.615 43.036C132.903 42.692 133.207 42.376 133.527 42.088C133.855 41.792 134.159 41.512 134.439 41.248C134.727 40.976 134.963 40.704 135.147 40.432C135.331 40.16 135.423 39.876 135.423 39.58C135.423 39.244 135.299 38.968 135.051 38.752C134.803 38.528 134.483 38.416 134.091 38.416C133.755 38.416 133.447 38.484 133.167 38.62C132.895 38.748 132.639 38.924 132.399 39.148L131.799 38.416C132.119 38.128 132.471 37.896 132.855 37.72C133.247 37.544 133.699 37.456 134.211 37.456C134.683 37.456 135.095 37.548 135.447 37.732C135.799 37.908 136.071 38.152 136.263 38.464C136.463 38.776 136.563 39.124 136.563 39.508C136.563 39.892 136.479 40.248 136.311 40.576C136.143 40.904 135.927 41.212 135.663 41.5C135.399 41.788 135.115 42.068 134.811 42.34C134.507 42.604 134.215 42.876 133.935 43.156C133.655 43.436 133.415 43.728 133.215 44.032C133.023 44.336 132.903 44.664 132.855 45.016H136.551V46H131.679ZM138.575 46C138.551 45.856 138.539 45.708 138.539 45.556C138.539 45.036 138.627 44.572 138.803 44.164C138.987 43.748 139.223 43.372 139.511 43.036C139.799 42.692 140.103 42.376 140.423 42.088C140.751 41.792 141.055 41.512 141.335 41.248C141.623 40.976 141.859 40.704 142.043 40.432C142.227 40.16 142.319 39.876 142.319 39.58C142.319 39.244 142.195 38.968 141.947 38.752C141.699 38.528 141.379 38.416 140.987 38.416C140.651 38.416 140.343 38.484 140.063 38.62C139.791 38.748 139.535 38.924 139.295 39.148L138.695 38.416C139.015 38.128 139.367 37.896 139.751 37.72C140.143 37.544 140.595 37.456 141.107 37.456C141.579 37.456 141.991 37.548 142.343 37.732C142.695 37.908 142.967 38.152 143.159 38.464C143.359 38.776 143.459 39.124 143.459 39.508C143.459 39.892 143.375 40.248 143.207 40.576C143.039 40.904 142.823 41.212 142.559 41.5C142.295 41.788 142.011 42.068 141.707 42.34C141.403 42.604 141.111 42.876 140.831 43.156C140.551 43.436 140.311 43.728 140.111 44.032C139.919 44.336 139.799 44.664 139.751 45.016H143.447V46H138.575ZM146.214 41.224C145.998 41.224 145.81 41.144 145.65 40.984C145.49 40.824 145.41 40.636 145.41 40.42C145.41 40.172 145.482 39.976 145.626 39.832C145.77 39.688 145.966 39.616 146.214 39.616C146.422 39.616 146.606 39.696 146.766 39.856C146.934 40.016 147.018 40.204 147.018 40.42C147.018 40.66 146.942 40.856 146.79 41.008C146.638 41.152 146.446 41.224 146.214 41.224ZM146.214 46.144C145.998 46.144 145.81 46.064 145.65 45.904C145.49 45.744 145.41 45.556 145.41 45.34C145.41 45.092 145.482 44.896 145.626 44.752C145.77 44.608 145.966 44.536 146.214 44.536C146.422 44.536 146.606 44.616 146.766 44.776C146.934 44.936 147.018 45.124 147.018 45.34C147.018 45.58 146.942 45.776 146.79 45.928C146.638 46.072 146.446 46.144 146.214 46.144ZM151.3 46.144C150.364 46.144 149.652 45.764 149.164 45.004C148.676 44.236 148.432 43.164 148.432 41.788C148.432 40.404 148.68 39.336 149.176 38.584C149.68 37.832 150.396 37.456 151.324 37.456C152.26 37.456 152.972 37.836 153.46 38.596C153.948 39.356 154.192 40.428 154.192 41.812C154.192 43.196 153.94 44.264 153.436 45.016C152.94 45.768 152.228 46.144 151.3 46.144ZM151.312 45.16C151.672 45.16 151.98 45.056 152.236 44.848C152.5 44.632 152.7 44.28 152.836 43.792C152.98 43.304 153.052 42.648 153.052 41.824C153.052 40.72 152.896 39.88 152.584 39.304C152.28 38.728 151.856 38.44 151.312 38.44C150.952 38.44 150.64 38.548 150.376 38.764C150.12 38.972 149.92 39.32 149.776 39.808C149.64 40.288 149.572 40.944 149.572 41.776C149.572 42.88 149.724 43.72 150.028 44.296C150.34 44.872 150.768 45.16 151.312 45.16ZM158.195 46.144C157.259 46.144 156.547 45.764 156.059 45.004C155.571 44.236 155.327 43.164 155.327 41.788C155.327 40.404 155.575 39.336 156.071 38.584C156.575 37.832 157.291 37.456 158.219 37.456C159.155 37.456 159.867 37.836 160.355 38.596C160.843 39.356 161.087 40.428 161.087 41.812C161.087 43.196 160.835 44.264 160.331 45.016C159.835 45.768 159.123 46.144 158.195 46.144ZM158.207 45.16C158.567 45.16 158.875 45.056 159.131 44.848C159.395 44.632 159.595 44.28 159.731 43.792C159.875 43.304 159.947 42.648 159.947 41.824C159.947 40.72 159.791 39.88 159.479 39.304C159.175 38.728 158.751 38.44 158.207 38.44C157.847 38.44 157.535 38.548 157.271 38.764C157.015 38.972 156.815 39.32 156.671 39.808C156.535 40.288 156.467 40.944 156.467 41.776C156.467 42.88 156.619 43.72 156.923 44.296C157.235 44.872 157.663 45.16 158.207 45.16Z" fill="#040404"/>
<path d="M20 68V66.6667C20 65.9594 20.281 65.2811 20.781 64.781C21.2811 64.281 21.9594 64 22.6667 64H25.3333C26.0406 64 26.7189 64.281 27.219 64.781C27.719 65.2811 28 65.9594 28 66.6667V68M21.3333 58.6667C21.3333 59.3739 21.6143 60.0522 22.1144 60.5523C22.6145 61.0524 23.2928 61.3333 24 61.3333C24.7072 61.3333 25.3855 61.0524 25.8856 60.5523C26.3857 60.0522 26.6667 59.3739 26.6667 58.6667C26.6667 57.9594 26.3857 57.2811 25.8856 56.781C25.3855 56.281 24.7072 56 24 56C23.2928 56 22.6145 56.281 22.1144 56.781C21.6143 57.2811 21.3333 57.9594 21.3333 58.6667Z" stroke="#FF7D0A" stroke-width="1.5" stroke-linecap="round" stroke-linejoin="round"/>
<path d="M49.9 60.228L49.492 61.02C47.824 60.732 46.204 59.796 45.508 58.5C44.836 59.808 43.216 60.732 41.536 61.02L41.14 60.228C43.096 59.94 44.992 58.644 44.992 57.108V56.508H46.024V57.108C46.024 58.608 47.944 59.94 49.9 60.228ZM50.368 62.184L50.38 63H45.976V66.9H44.992V63H40.648V62.184H50.368ZM56.2351 66.12C57.9151 66.12 58.9231 65.7 58.9231 64.968C58.9231 64.236 57.9151 63.816 56.2351 63.816C54.5431 63.816 53.5471 64.236 53.5471 64.968C53.5471 65.7 54.5431 66.12 56.2351 66.12ZM56.2351 63.048C58.5511 63.048 59.9191 63.732 59.9191 64.968C59.9191 66.204 58.5511 66.876 56.2351 66.876C53.9311 66.876 52.5511 66.204 52.5511 64.968C52.5511 63.732 53.9311 63.048 56.2351 63.048ZM54.7471 60.192V61.452H57.7351V60.192C57.2911 60.264 56.7871 60.312 56.2351 60.312C55.6951 60.312 55.1911 60.264 54.7471 60.192ZM53.4631 58.32C53.4631 59.088 54.5191 59.556 56.2351 59.556C57.9511 59.556 59.0071 59.088 59.0071 58.32C59.0071 57.54 57.9511 57.084 56.2351 57.084C54.5191 57.084 53.4631 57.54 53.4631 58.32ZM58.7071 61.452H61.1071V62.244H51.3631V61.452H53.7751V59.94C52.9231 59.592 52.4551 59.052 52.4551 58.32C52.4551 57.06 53.9071 56.316 56.2351 56.316C58.5751 56.316 60.0151 57.06 60.0151 58.32C60.0151 59.04 59.5351 59.592 58.7071 59.928V61.452ZM70.9461 56.136V63.996H69.9621V56.136H70.9461ZM63.3261 59.52C63.3261 60.588 64.1181 61.332 65.1621 61.332C66.2301 61.332 67.0221 60.588 67.0221 59.52C67.0221 58.476 66.2301 57.732 65.1621 57.732C64.1181 57.732 63.3261 58.476 63.3261 59.52ZM67.9821 59.52C67.9821 61.08 66.7701 62.184 65.1621 62.184C63.5661 62.184 62.3661 61.08 62.3661 59.52C62.3661 57.972 63.5661 56.88 65.1621 56.88C66.7701 56.88 67.9821 57.972 67.9821 59.52ZM65.0061 65.844H71.2701V66.648H64.0221V63.192H65.0061V65.844ZM78.4932 62.484H80.6772V56.124H81.6612V64.32H80.6772V63.216H78.4932V62.484ZM76.2972 57.288C75.2772 57.288 74.5812 57.744 74.5812 58.428C74.5812 59.124 75.2772 59.58 76.2972 59.58C77.3172 59.58 78.0132 59.124 78.0132 58.428C78.0132 57.744 77.3172 57.288 76.2972 57.288ZM76.2972 60.312C74.7252 60.312 73.6452 59.58 73.6452 58.428C73.6452 57.3 74.7252 56.556 76.2972 56.556C77.8692 56.556 78.9492 57.3 78.9492 58.428C78.9492 59.58 77.8692 60.312 76.2972 60.312ZM75.9132 63.936V61.86C74.8452 61.908 73.8132 61.92 72.9252 61.92L72.7932 61.104C74.7852 61.104 77.4492 61.08 79.7292 60.792L79.8132 61.5C78.8652 61.644 77.8692 61.752 76.8972 61.812V63.936H75.9132ZM75.3132 65.844H81.9372V66.648H74.3292V63.516H75.3132V65.844ZM84.7562 61.224C84.5402 61.224 84.3522 61.144 84.1922 60.984C84.0322 60.824 83.9522 60.636 83.9522 60.42C83.9522 60.172 84.0242 59.976 84.1682 59.832C84.3122 59.688 84.5082 59.616 84.7562 59.616C84.9642 59.616 85.1482 59.696 85.3082 59.856C85.4762 60.016 85.5602 60.204 85.5602 60.42C85.5602 60.66 85.4842 60.856 85.3322 61.008C85.1802 61.152 84.9882 61.224 84.7562 61.224ZM84.7562 66.144C84.5402 66.144 84.3522 66.064 84.1922 65.904C84.0322 65.744 83.9522 65.556 83.9522 65.34C83.9522 65.092 84.0242 64.896 84.1682 64.752C84.3122 64.608 84.5082 64.536 84.7562 64.536C84.9642 64.536 85.1482 64.616 85.3082 64.776C85.4762 64.936 85.5602 65.124 85.5602 65.34C85.5602 65.58 85.4842 65.776 85.3322 65.928C85.1802 66.072 84.9882 66.144 84.7562 66.144ZM92.7196 66.144C92.2556 66.144 91.8396 66.064 91.4716 65.904C91.1036 65.736 90.7676 65.504 90.4636 65.208L91.1716 64.404C91.6516 64.908 92.1876 65.16 92.7796 65.16C93.1076 65.16 93.4116 65.052 93.6916 64.836C93.9716 64.612 94.1956 64.264 94.3636 63.792C94.5396 63.32 94.6276 62.712 94.6276 61.968C94.3796 62.192 94.1036 62.38 93.7996 62.532C93.4956 62.684 93.1676 62.76 92.8156 62.76C92.3916 62.76 91.9876 62.664 91.6036 62.472C91.2276 62.272 90.9196 61.984 90.6796 61.608C90.4476 61.224 90.3316 60.752 90.3316 60.192C90.3316 59.688 90.4436 59.228 90.6676 58.812C90.8996 58.396 91.2196 58.068 91.6276 57.828C92.0356 57.58 92.5076 57.456 93.0436 57.456C93.4596 57.456 93.8156 57.52 94.1116 57.648C94.4076 57.776 94.6556 57.944 94.8556 58.152C95.0476 58.352 95.2076 58.588 95.3356 58.86C95.4716 59.124 95.5716 59.476 95.6356 59.916C95.6996 60.348 95.7316 60.912 95.7316 61.608C95.7316 62.672 95.5996 63.54 95.3356 64.212C95.0716 64.876 94.7116 65.364 94.2556 65.676C93.8076 65.988 93.2956 66.144 92.7196 66.144ZM92.9956 61.872C93.2996 61.872 93.5916 61.796 93.8716 61.644C94.1596 61.492 94.4116 61.308 94.6276 61.092V60.732C94.6276 59.972 94.4796 59.396 94.1836 59.004C93.8956 58.612 93.5036 58.416 93.0076 58.416C92.5516 58.416 92.1636 58.576 91.8436 58.896C91.5316 59.208 91.3756 59.624 91.3756 60.144C91.3756 60.504 91.4516 60.816 91.6036 61.08C91.7556 61.336 91.9516 61.532 92.1916 61.668C92.4396 61.804 92.7076 61.872 92.9956 61.872ZM100.035 66.144C99.0989 66.144 98.3869 65.764 97.8989 65.004C97.4109 64.236 97.1669 63.164 97.1669 61.788C97.1669 60.404 97.4149 59.336 97.9109 58.584C98.4149 57.832 99.1309 57.456 100.059 57.456C100.995 57.456 101.707 57.836 102.195 58.596C102.683 59.356 102.927 60.428 102.927 61.812C102.927 63.196 102.675 64.264 102.171 65.016C101.675 65.768 100.963 66.144 100.035 66.144ZM100.047 65.16C100.407 65.16 100.715 65.056 100.971 64.848C101.235 64.632 101.435 64.28 101.571 63.792C101.715 63.304 101.787 62.648 101.787 61.824C101.787 60.72 101.631 59.88 101.319 59.304C101.015 58.728 100.591 58.44 100.047 58.44C99.6869 58.44 99.3749 58.548 99.1109 58.764C98.8549 58.972 98.6549 59.32 98.5109 59.808C98.3749 60.288 98.3069 60.944 98.3069 61.776C98.3069 62.88 98.4589 63.72 98.7629 64.296C99.0749 64.872 99.5029 65.16 100.047 65.16ZM108.418 60.936V57.732H105.442V60.936H108.418ZM111.85 58.668H109.378V60H111.85V58.668ZM109.378 60.792V61.716H104.47V56.94H109.378V57.876H111.85V56.136H112.846V62.496H111.85V60.792H109.378ZM109.282 66.108C110.914 66.108 111.898 65.64 111.898 64.848C111.898 64.056 110.914 63.588 109.282 63.588C107.674 63.588 106.69 64.056 106.69 64.848C106.69 65.64 107.674 66.108 109.282 66.108ZM109.282 62.82C111.502 62.82 112.882 63.552 112.882 64.848C112.882 66.132 111.502 66.876 109.282 66.876C107.074 66.876 105.706 66.132 105.706 64.848C105.706 63.552 107.074 62.82 109.282 62.82Z" fill="#040404"/>
<path d="M28.2427 77.0904C29.3443 78.1918 29.9743 79.6785 29.9995 81.236C30.0248 82.7935 29.4433 84.2998 28.378 85.4364L28.2427 85.5764L25.414 88.4044C25.0551 88.7631 24.5733 88.9719 24.0661 88.9886C23.559 89.0053 23.0645 88.8287 22.6827 88.4944L22.5867 88.4044L19.7574 85.5757C18.6321 84.4505 18 82.9244 18 81.333C18 79.7417 18.6321 78.2156 19.7574 77.0904C20.8826 75.9652 22.4087 75.333 24 75.333C25.5913 75.333 27.1175 75.9652 28.2427 77.0904ZM24 79.333C23.7374 79.333 23.4773 79.3848 23.2347 79.4853C22.992 79.5858 22.7715 79.7331 22.5858 79.9188C22.4001 80.1045 22.2528 80.325 22.1523 80.5677C22.0518 80.8103 22 81.0704 22 81.333C22 81.5957 22.0518 81.8558 22.1523 82.0984C22.2528 82.3411 22.4001 82.5615 22.5858 82.7473C22.7715 82.933 22.992 83.0803 23.2347 83.1808C23.4773 83.2813 23.7374 83.333 24 83.333C24.5305 83.333 25.0392 83.1223 25.4143 82.7473C25.7893 82.3722 26 81.8635 26 81.333C26 80.8026 25.7893 80.2939 25.4143 79.9188C25.0392 79.5438 24.5305 79.333 24 79.333Z" fill="#FF7D0A"/>
<path d="M41.596 81.356L41.224 80.576C43.096 80.3 44.956 79.064 44.956 77.648V77.588H41.56V76.796H49.42V77.588H46.048V77.648C46.048 79.064 47.908 80.3 49.804 80.576L49.42 81.356C47.752 81.068 46.156 80.168 45.508 78.896C44.848 80.168 43.264 81.068 41.596 81.356ZM50.368 82.256L50.38 83.06H45.976V86.888H44.992V83.06H40.648V82.256H50.368ZM60.6631 81.38L60.2431 82.196C58.5991 81.848 56.9071 80.732 56.2111 79.196C55.5151 80.732 53.8351 81.848 52.1791 82.196L51.7711 81.38C53.6551 81.044 55.6951 79.46 55.6951 77.672V76.844H56.7271V77.672C56.7271 79.46 58.7791 81.044 60.6631 81.38ZM56.7031 84.68H61.1431V85.484H51.3751V84.68H55.7191V82.064H56.7031V84.68ZM66.5758 81.224C66.3598 81.224 66.1718 81.144 66.0118 80.984C65.8518 80.824 65.7718 80.636 65.7718 80.42C65.7718 80.172 65.8438 79.976 65.9878 79.832C66.1318 79.688 66.3278 79.616 66.5758 79.616C66.7838 79.616 66.9678 79.696 67.1278 79.856C67.2958 80.016 67.3798 80.204 67.3798 80.42C67.3798 80.66 67.3038 80.856 67.1518 81.008C66.9998 81.152 66.8078 81.224 66.5758 81.224ZM66.5758 86.144C66.3598 86.144 66.1718 86.064 66.0118 85.904C65.8518 85.744 65.7718 85.556 65.7718 85.34C65.7718 85.092 65.8438 84.896 65.9878 84.752C66.1318 84.608 66.3278 84.536 66.5758 84.536C66.7838 84.536 66.9678 84.616 67.1278 84.776C67.2958 84.936 67.3798 85.124 67.3798 85.34C67.3798 85.58 67.3038 85.776 67.1518 85.928C66.9998 86.072 66.8078 86.144 66.5758 86.144ZM80.8391 76.136V83.996H79.8551V76.136H80.8391ZM73.2191 79.52C73.2191 80.588 74.0111 81.332 75.0551 81.332C76.1231 81.332 76.9151 80.588 76.9151 79.52C76.9151 78.476 76.1231 77.732 75.0551 77.732C74.0111 77.732 73.2191 78.476 73.2191 79.52ZM77.8751 79.52C77.8751 81.08 76.6631 82.184 75.0551 82.184C73.4591 82.184 72.2591 81.08 72.2591 79.52C72.2591 77.972 73.4591 76.88 75.0551 76.88C76.6631 76.88 77.8751 77.972 77.8751 79.52ZM74.8991 85.844H81.1631V86.648H73.9151V83.192H74.8991V85.844ZM88.4462 79.436H90.6182V76.136H91.6142V84.164H90.6182V80.252H88.4462V79.436ZM89.1062 81.872L88.6262 82.652C87.3902 82.244 86.4302 81.392 85.9382 80.3C85.4822 81.488 84.5222 82.4 83.2622 82.844L82.7702 82.076C84.3662 81.536 85.4342 80.192 85.4342 78.692V78.356H83.0462V77.564H85.4342V76.184H86.4182V77.564H88.7942V78.356H86.4182V78.692C86.4182 80.12 87.5102 81.368 89.1062 81.872ZM85.7222 85.844H91.9142V86.648H84.7262V83.444H85.7222V85.844ZM97.6829 80.516L97.3349 79.736C99.2189 79.52 100.935 78.596 101.019 77.408H97.6829V76.616H105.639V77.408H102.291C102.375 78.596 104.091 79.52 105.975 79.736L105.627 80.516C103.863 80.3 102.255 79.508 101.655 78.32C101.067 79.508 99.4469 80.3 97.6829 80.516ZM104.331 84.98C104.331 84.26 103.323 83.852 101.643 83.852C99.9509 83.852 98.9549 84.26 98.9549 84.98C98.9549 85.7 99.9509 86.12 101.643 86.12C103.323 86.12 104.331 85.7 104.331 84.98ZM106.515 81.956H102.147V83.108C104.151 83.204 105.327 83.864 105.327 84.98C105.327 86.204 103.947 86.876 101.655 86.876C99.3509 86.876 97.9589 86.204 97.9589 84.98C97.9589 83.864 99.1469 83.204 101.151 83.108V81.956H96.7829V81.164H106.515V81.956ZM117.266 81.452V82.256H112.874V86.9H111.878V82.256H107.534V81.452H114.674C115.01 79.904 115.01 78.764 115.01 77.756V77.612H108.746V76.82H115.97V77.756C115.97 78.764 115.97 79.904 115.67 81.452H117.266ZM130.391 76.124V84.02H129.407V76.124H130.391ZM128.039 81.488L127.523 82.268C126.299 81.8 125.351 80.828 124.871 79.604C124.415 80.912 123.443 81.956 122.183 82.484L121.667 81.68C123.287 81.056 124.367 79.496 124.367 77.816V76.724H125.351V77.816C125.351 79.436 126.443 80.9 128.039 81.488ZM124.451 85.844H130.715V86.648H123.467V83.288H124.451V85.844ZM135.814 77.948V81.476H138.49V77.948H135.814ZM137.65 84.74H142.054V85.544H132.298V84.74H136.654V82.268H133.186V81.476H134.83V77.948H133.162V77.156H141.142V77.948H139.474V81.476H141.118V82.268H137.65V84.74ZM148.401 84.752H152.805V85.556H143.025V84.752H147.405V82.724H144.249V79.4H150.633V77.72H144.225V76.916H151.593V80.192H145.221V81.932H151.845V82.724H148.401V84.752ZM154.196 86C154.172 85.856 154.16 85.708 154.16 85.556C154.16 85.036 154.248 84.572 154.424 84.164C154.608 83.748 154.844 83.372 155.132 83.036C155.42 82.692 155.724 82.376 156.044 82.088C156.372 81.792 156.676 81.512 156.956 81.248C157.244 80.976 157.48 80.704 157.664 80.432C157.848 80.16 157.94 79.876 157.94 79.58C157.94 79.244 157.816 78.968 157.568 78.752C157.32 78.528 157 78.416 156.608 78.416C156.272 78.416 155.964 78.484 155.684 78.62C155.412 78.748 155.156 78.924 154.916 79.148L154.316 78.416C154.636 78.128 154.988 77.896 155.372 77.72C155.764 77.544 156.216 77.456 156.728 77.456C157.2 77.456 157.612 77.548 157.964 77.732C158.316 77.908 158.588 78.152 158.78 78.464C158.98 78.776 159.08 79.124 159.08 79.508C159.08 79.892 158.996 80.248 158.828 80.576C158.66 80.904 158.444 81.212 158.18 81.5C157.916 81.788 157.632 82.068 157.328 82.34C157.024 82.604 156.732 82.876 156.452 83.156C156.172 83.436 155.932 83.728 155.732 84.032C155.54 84.336 155.42 84.664 155.372 85.016H159.068V86H154.196ZM162.375 86C162.375 85.08 162.435 84.264 162.555 83.552C162.683 82.832 162.863 82.184 163.095 81.608C163.335 81.032 163.631 80.5 163.983 80.012C164.335 79.524 164.739 79.048 165.195 78.584H161.151V77.6H166.479V78.464C165.927 79 165.467 79.524 165.099 80.036C164.731 80.54 164.435 81.076 164.211 81.644C163.987 82.204 163.827 82.84 163.731 83.552C163.635 84.256 163.587 85.072 163.587 86H162.375ZM171.982 81.464V79.52H169.078V81.464H171.982ZM172.954 79.964V82.256H168.106V76.844H169.078V78.74H171.982V76.844H172.954V79.16H175.438V76.124H176.434V84.092H175.438V79.964H172.954ZM170.494 85.844H176.686V86.648H169.51V83.312H170.494V85.844ZM187.138 76.124V81.62H186.154V76.124H187.138ZM179.026 76.652H183.922C183.922 79.388 182.014 81.116 178.846 81.836L178.486 81.044C181.174 80.456 182.698 79.172 182.854 77.456H179.026V76.652ZM181.174 86H187.498V86.78H180.19V84.02H186.154V82.916H180.166V82.136H187.138V84.752H181.174V86ZM194.814 86.144C194.294 86.144 193.842 86.076 193.458 85.94C193.074 85.796 192.746 85.624 192.474 85.424L192.966 84.524C193.19 84.692 193.45 84.84 193.746 84.968C194.042 85.096 194.402 85.16 194.826 85.16C195.354 85.16 195.77 85.02 196.074 84.74C196.386 84.46 196.542 84.112 196.542 83.696C196.542 83.4 196.462 83.132 196.302 82.892C196.142 82.644 195.894 82.444 195.558 82.292C195.23 82.14 194.802 82.064 194.274 82.064H193.602V81.188H194.226C194.698 81.188 195.086 81.116 195.39 80.972C195.702 80.828 195.934 80.64 196.086 80.408C196.238 80.176 196.314 79.932 196.314 79.676C196.314 79.3 196.17 78.996 195.882 78.764C195.602 78.532 195.254 78.416 194.838 78.416C194.462 78.416 194.126 78.48 193.83 78.608C193.542 78.728 193.306 78.864 193.122 79.016L192.678 78.164C192.918 78.004 193.226 77.848 193.602 77.696C193.978 77.536 194.418 77.456 194.922 77.456C195.45 77.456 195.898 77.552 196.266 77.744C196.634 77.936 196.914 78.192 197.106 78.512C197.306 78.824 197.406 79.164 197.406 79.532C197.406 80.004 197.286 80.4 197.046 80.72C196.814 81.04 196.482 81.304 196.05 81.512C196.554 81.704 196.946 81.988 197.226 82.364C197.514 82.732 197.658 83.164 197.658 83.66C197.658 84.076 197.554 84.476 197.346 84.86C197.146 85.236 196.834 85.544 196.41 85.784C195.994 86.024 195.462 86.144 194.814 86.144Z" fill="#040404"/>
<path d="M22.666 104.666V99.333H24.8887C25.502 99.333 25.9993 99.9297 25.9993 100.666C25.9993 101.403 25.502 102 24.8887 102H22.666" stroke="#FF7D0A" stroke-width="1.5" stroke-linecap="round" stroke-linejoin="round"/>
<path d="M18 102C18 102.788 18.1552 103.568 18.4567 104.296C18.7583 105.024 19.2002 105.685 19.7574 106.243C20.3145 106.8 20.9759 107.242 21.7039 107.543C22.4319 107.845 23.2121 108 24 108C24.7879 108 25.5681 107.845 26.2961 107.543C27.0241 107.242 27.6855 106.8 28.2426 106.243C28.7998 105.685 29.2417 105.024 29.5433 104.296C29.8448 103.568 30 102.788 30 102C30 100.409 29.3679 98.8826 28.2426 97.7574C27.1174 96.6321 25.5913 96 24 96C22.4087 96 20.8826 96.6321 19.7574 97.7574C18.6321 98.8826 18 100.409 18 102Z" stroke="#FF7D0A" stroke-width="1.5" stroke-linecap="round" stroke-linejoin="round"/>
<path d="M41.596 101.356L41.224 100.576C43.096 100.3 44.956 99.064 44.956 97.648V97.588H41.56V96.796H49.42V97.588H46.048V97.648C46.048 99.064 47.908 100.3 49.804 100.576L49.42 101.356C47.752 101.068 46.156 100.168 45.508 98.896C44.848 100.168 43.264 101.068 41.596 101.356ZM50.368 102.256L50.38 103.06H45.976V106.888H44.992V103.06H40.648V102.256H50.368ZM54.9751 98.776V99.616C54.9751 101.344 56.0431 103.108 57.5911 103.852L57.0391 104.62C55.8631 104.044 54.9511 102.868 54.4951 101.488C54.0391 102.964 53.0551 104.212 51.8311 104.812L51.2791 104.068C52.8511 103.3 54.0031 101.476 54.0031 99.616V98.776H51.5671V97.984H53.9911V96.316H54.9751V97.984H57.3631V98.776H54.9751ZM61.4311 100.552V101.368H59.6551V106.888H58.6711V96.124H59.6551V100.552H61.4311ZM67.8621 98.92H69.9861V96.136H70.9821V102.544H69.9861V99.724H67.8621V98.92ZM68.4621 101.368L67.9701 102.136C66.7701 101.704 65.8461 100.816 65.3781 99.712C64.9221 100.96 63.9261 101.968 62.6661 102.448L62.1501 101.668C63.7581 101.08 64.8621 99.628 64.8621 98.08V97.708H62.4621V96.916H68.2101V97.708H65.8461V98.08C65.8461 99.46 66.9021 100.816 68.4621 101.368ZM67.4301 106.12C69.0501 106.12 70.0341 105.664 70.0341 104.884C70.0341 104.104 69.0501 103.636 67.4301 103.636C65.8101 103.636 64.8261 104.104 64.8261 104.884C64.8261 105.664 65.8101 106.12 67.4301 106.12ZM67.4301 102.88C69.6381 102.88 71.0181 103.612 71.0181 104.884C71.0181 106.156 69.6381 106.888 67.4301 106.888C65.2221 106.888 63.8421 106.156 63.8421 104.884C63.8421 103.612 65.2221 102.88 67.4301 102.88ZM74.9772 99.616V101.596H80.4732V99.616H74.9772ZM78.2172 104.704H82.6092V105.508H72.8532V104.704H77.2212V102.388H74.0052V96.892H74.9772V98.812H80.4732V96.892H81.4332V102.388H78.2172V104.704ZM88.0539 101.224C87.8379 101.224 87.6499 101.144 87.4899 100.984C87.3299 100.824 87.2499 100.636 87.2499 100.42C87.2499 100.172 87.3219 99.976 87.4659 99.832C87.6099 99.688 87.8059 99.616 88.0539 99.616C88.2619 99.616 88.4459 99.696 88.6059 99.856C88.7739 100.016 88.8579 100.204 88.8579 100.42C88.8579 100.66 88.7819 100.856 88.6299 101.008C88.4779 101.152 88.2859 101.224 88.0539 101.224ZM88.0539 106.144C87.8379 106.144 87.6499 106.064 87.4899 105.904C87.3299 105.744 87.2499 105.556 87.2499 105.34C87.2499 105.092 87.3219 104.896 87.4659 104.752C87.6099 104.608 87.8059 104.536 88.0539 104.536C88.2619 104.536 88.4459 104.616 88.6059 104.776C88.7739 104.936 88.8579 105.124 88.8579 105.34C88.8579 105.58 88.7819 105.776 88.6299 105.928C88.4779 106.072 88.2859 106.144 88.0539 106.144ZM102.317 96.124V104.02H101.333V96.124H102.317ZM99.9652 101.488L99.4492 102.268C98.2252 101.8 97.2772 100.828 96.7972 99.604C96.3412 100.912 95.3692 101.956 94.1092 102.484L93.5932 101.68C95.2132 101.056 96.2932 99.496 96.2932 97.816V96.724H97.2772V97.816C97.2772 99.436 98.3692 100.9 99.9652 101.488ZM96.3772 105.844H102.641V106.648H95.3932V103.288H96.3772V105.844ZM107.74 97.948V101.476H110.416V97.948H107.74ZM109.576 104.74H113.98V105.544H104.224V104.74H108.58V102.268H105.112V101.476H106.756V97.948H105.088V97.156H113.068V97.948H111.4V101.476H113.044V102.268H109.576V104.74ZM119.835 106.12C121.515 106.12 122.511 105.7 122.511 104.944C122.511 104.188 121.515 103.768 119.835 103.768C118.131 103.768 117.135 104.188 117.135 104.944C117.135 105.7 118.131 106.12 119.835 106.12ZM119.835 103C122.115 103 123.507 103.696 123.507 104.944C123.507 106.192 122.115 106.888 119.835 106.888C117.531 106.888 116.139 106.192 116.139 104.944C116.139 103.696 117.531 103 119.835 103ZM120.327 101.44H124.707V102.232H114.963V101.44H119.343V100.192H116.187V96.616H123.495V97.408H117.171V99.4H123.567V100.192H120.327V101.44ZM133.226 97.588V97.468H126.866V96.676H134.198V97.588C134.198 98.452 134.198 99.328 133.898 100.432L132.938 100.324C133.226 99.22 133.226 98.428 133.226 97.588ZM130.526 106.108C132.218 106.108 133.298 105.652 133.298 104.908C133.298 104.14 132.218 103.684 130.526 103.684C128.846 103.684 127.766 104.14 127.766 104.908C127.766 105.652 128.846 106.108 130.526 106.108ZM130.526 102.928C132.818 102.928 134.282 103.66 134.282 104.908C134.282 106.132 132.818 106.876 130.526 106.876C128.234 106.876 126.782 106.132 126.782 104.908C126.782 103.66 128.234 102.928 130.526 102.928ZM130.682 101.14H135.41V101.932H125.726V101.14H129.698V99.076H130.682V101.14ZM137.545 99.316C137.545 100.324 138.337 101.044 139.381 101.044C140.437 101.044 141.205 100.324 141.205 99.316C141.205 98.32 140.437 97.6 139.381 97.6C138.337 97.6 137.545 98.32 137.545 99.316ZM144.313 98.476H142.009C142.093 98.728 142.141 99.004 142.141 99.316C142.141 99.616 142.093 99.892 141.997 100.156H144.313V98.476ZM144.313 100.96H141.553C141.061 101.536 140.293 101.884 139.381 101.884C137.785 101.884 136.609 100.828 136.609 99.316C136.609 97.816 137.785 96.772 139.381 96.772C140.293 96.772 141.061 97.12 141.553 97.672H144.313V96.124H145.309V102.496H144.313V100.96ZM141.745 106.096C143.389 106.096 144.373 105.616 144.373 104.812C144.373 103.996 143.389 103.516 141.745 103.516C140.125 103.516 139.141 103.996 139.141 104.812C139.141 105.616 140.125 106.096 141.745 106.096ZM141.745 102.748C143.965 102.748 145.345 103.504 145.345 104.812C145.345 106.12 143.965 106.876 141.745 106.876C139.537 106.876 138.169 106.12 138.169 104.812C138.169 103.504 139.537 102.748 141.745 102.748ZM152.545 104.692H156.949V105.496H147.169V104.692H151.561V101.812H148.369V97.048H149.353V101.02H155.833V101.812H152.545V104.692ZM159.492 99.34C159.492 100.348 160.308 101.044 161.4 101.044C162.528 101.044 163.332 100.348 163.332 99.34C163.332 98.344 162.528 97.66 161.4 97.66C160.308 97.66 159.492 98.344 159.492 99.34ZM161.892 101.848V103.672C162.936 103.612 164.004 103.528 165 103.372L165.084 104.104C162.66 104.548 160.056 104.572 158.112 104.572L157.992 103.744C158.856 103.744 159.852 103.744 160.908 103.708V101.848C159.516 101.668 158.532 100.696 158.532 99.34C158.532 97.84 159.744 96.82 161.4 96.82C163.092 96.82 164.292 97.84 164.292 99.34C164.292 100.696 163.32 101.68 161.892 101.848ZM165.708 96.112H166.692V106.912H165.708V96.112ZM169.619 101.356L169.247 100.576C171.119 100.3 172.979 99.064 172.979 97.648V97.588H169.583V96.796H177.443V97.588H174.071V97.648C174.071 99.064 175.931 100.3 177.827 100.576L177.443 101.356C175.775 101.068 174.179 100.168 173.531 98.896C172.871 100.168 171.287 101.068 169.619 101.356ZM178.391 102.256L178.403 103.06H173.999V106.888H173.015V103.06H168.671V102.256H178.391ZM182.998 98.776V99.616C182.998 101.344 184.066 103.108 185.614 103.852L185.062 104.62C183.886 104.044 182.974 102.868 182.518 101.488C182.062 102.964 181.078 104.212 179.854 104.812L179.302 104.068C180.874 103.3 182.026 101.476 182.026 99.616V98.776H179.59V97.984H182.014V96.316H182.998V97.984H185.386V98.776H182.998ZM189.454 100.552V101.368H187.678V106.888H186.694V96.124H187.678V100.552H189.454ZM196.377 101.332L195.909 102.1C194.685 101.704 193.761 100.852 193.305 99.784C192.849 101.008 191.877 101.968 190.593 102.424L190.089 101.644C191.709 101.08 192.789 99.688 192.789 98.14V97.72H190.377V96.928H196.149V97.72H193.773V98.14C193.773 99.544 194.793 100.804 196.377 101.332ZM195.069 106.096C196.653 106.096 197.625 105.652 197.625 104.884C197.625 104.128 196.653 103.684 195.069 103.684C193.461 103.684 192.501 104.128 192.501 104.884C192.501 105.652 193.461 106.096 195.069 106.096ZM195.069 102.904C197.253 102.904 198.609 103.636 198.609 104.884C198.609 106.144 197.253 106.876 195.069 106.876C192.861 106.876 191.517 106.144 191.517 104.884C191.517 103.636 192.861 102.904 195.069 102.904ZM198.489 98.848H200.085V99.676H198.489V102.628H197.505V96.136H198.489V98.848Z" fill="#040404"/>
<path d="M18.668 125.333C18.668 125.687 18.8084 126.026 19.0585 126.276C19.3085 126.526 19.6477 126.667 20.0013 126.667C20.3549 126.667 20.6941 126.526 20.9441 126.276C21.1942 126.026 21.3346 125.687 21.3346 125.333C21.3346 124.98 21.1942 124.641 20.9441 124.391C20.6941 124.14 20.3549 124 20.0013 124C19.6477 124 19.3085 124.14 19.0585 124.391C18.8084 124.641 18.668 124.98 18.668 125.333ZM26.668 125.333C26.668 125.687 26.8084 126.026 27.0585 126.276C27.3085 126.526 27.6477 126.667 28.0013 126.667C28.3549 126.667 28.6941 126.526 28.9441 126.276C29.1942 126.026 29.3346 125.687 29.3346 125.333C29.3346 124.98 29.1942 124.641 28.9441 124.391C28.6941 124.14 28.3549 124 28.0013 124C27.6477 124 27.3085 124.14 27.0585 124.391C26.8084 124.641 26.668 124.98 26.668 125.333Z" stroke="#FF7D0A" stroke-width="1.5" stroke-linecap="round" stroke-linejoin="round"/>
<path d="M18.6673 125.333H17.334V118C17.334 117.823 17.4042 117.653 17.5292 117.528C17.6543 117.403 17.8238 117.333 18.0007 117.333H27.334C28.218 117.333 29.0659 117.825 29.691 118.7C30.3161 119.575 30.6673 120.762 30.6673 122V125.333H29.334M26.6673 125.333H21.334" stroke="#FF7D0A" stroke-width="1.5" stroke-linecap="round" stroke-linejoin="round"/>
<path d="M26.6673 117.333L27.6673 122H30.6673M17.334 120.666H27.334M20.6673 117.333V120.666M24.0007 117.333V120.666" stroke="#FF7D0A" stroke-width="1.5" stroke-linecap="round" stroke-linejoin="round"/>
<path d="M42.532 119.652C42.532 120.888 43.792 121.692 45.508 121.692C47.224 121.692 48.472 120.888 48.472 119.652C48.472 118.416 47.224 117.612 45.508 117.612C43.792 117.612 42.532 118.416 42.532 119.652ZM46 124.692H50.404V125.508H40.624V124.692H45.004V122.448C43 122.304 41.584 121.236 41.584 119.652C41.584 117.936 43.228 116.832 45.508 116.832C47.776 116.832 49.408 117.936 49.408 119.652C49.408 121.236 48.004 122.304 46 122.448V124.692ZM55.1911 117.06V118.992C55.1911 120.96 56.4751 122.94 58.0711 123.66L57.4831 124.452C56.2591 123.852 55.2271 122.58 54.7111 121.044C54.2191 122.664 53.1871 124.008 51.9271 124.656L51.3271 123.852C52.9111 123.096 54.2191 121.032 54.2191 118.992V117.06H55.1911ZM59.1991 116.124H60.1831V126.912H59.1991V116.124ZM70.7421 119.364V120.168H63.4221V116.52H64.4061V119.364H70.7421ZM64.3341 123.48V125.82H70.8021V126.624H63.3501V123.48H64.3341ZM62.1021 121.608H71.8581V122.4H62.1021V121.608ZM84.9828 116.124V121.62H83.9988V116.124H84.9828ZM76.8708 116.652H81.7668C81.7668 119.388 79.8588 121.116 76.6908 121.836L76.3308 121.044C79.0188 120.456 80.5428 119.172 80.6988 117.456H76.8708V116.652ZM79.0188 126H85.3428V126.78H78.0348V124.02H83.9988V122.916H78.0108V122.136H84.9828V124.752H79.0188V126ZM41.56 138.376V137.392H45.64V138.376H41.56ZM59.661 132.124V140.02H58.677V132.124H59.661ZM57.309 137.488L56.793 138.268C55.569 137.8 54.621 136.828 54.141 135.604C53.685 136.912 52.713 137.956 51.453 138.484L50.937 137.68C52.557 137.056 53.637 135.496 53.637 133.816V132.724H54.621V133.816C54.621 135.436 55.713 136.9 57.309 137.488ZM53.721 141.844H59.985V142.648H52.737V139.288H53.721V141.844ZM65.084 133.948V137.476H67.76V133.948H65.084ZM66.92 140.74H71.324V141.544H61.568V140.74H65.924V138.268H62.456V137.476H64.1V133.948H62.432V133.156H70.412V133.948H68.744V137.476H70.388V138.268H66.92V140.74ZM73.9751 139.864V139.06H81.1751V142.9H80.1791V139.864H73.9751ZM77.8871 136.12H80.1791V134.5H77.8871C77.9591 134.752 78.0071 135.016 78.0071 135.304C78.0071 135.604 77.9591 135.868 77.8871 136.12ZM75.2351 137.068C76.2911 137.068 77.0711 136.336 77.0711 135.304C77.0711 134.296 76.2911 133.564 75.2351 133.564C74.1911 133.564 73.4111 134.296 73.4111 135.304C73.4111 136.336 74.1911 137.068 75.2351 137.068ZM80.1791 132.136L81.1751 132.124V138.472H80.1791V136.924H77.4551C76.9511 137.536 76.1711 137.908 75.2351 137.908C73.6511 137.908 72.4751 136.828 72.4751 135.304C72.4751 133.792 73.6511 132.724 75.2351 132.724C76.1711 132.724 76.9631 133.096 77.4671 133.708H80.1791V132.136ZM88.8158 142.144C88.2958 142.144 87.8438 142.076 87.4598 141.94C87.0758 141.796 86.7478 141.624 86.4758 141.424L86.9678 140.524C87.1918 140.692 87.4518 140.84 87.7478 140.968C88.0438 141.096 88.4038 141.16 88.8278 141.16C89.3558 141.16 89.7718 141.02 90.0758 140.74C90.3878 140.46 90.5438 140.112 90.5438 139.696C90.5438 139.4 90.4638 139.132 90.3038 138.892C90.1438 138.644 89.8958 138.444 89.5598 138.292C89.2318 138.14 88.8038 138.064 88.2758 138.064H87.6038V137.188H88.2278C88.6998 137.188 89.0878 137.116 89.3918 136.972C89.7038 136.828 89.9358 136.64 90.0878 136.408C90.2398 136.176 90.3158 135.932 90.3158 135.676C90.3158 135.3 90.1718 134.996 89.8838 134.764C89.6038 134.532 89.2558 134.416 88.8398 134.416C88.4638 134.416 88.1278 134.48 87.8318 134.608C87.5438 134.728 87.3078 134.864 87.1238 135.016L86.6798 134.164C86.9198 134.004 87.2278 133.848 87.6038 133.696C87.9798 133.536 88.4198 133.456 88.9238 133.456C89.4518 133.456 89.8998 133.552 90.2678 133.744C90.6358 133.936 90.9158 134.192 91.1078 134.512C91.3078 134.824 91.4078 135.164 91.4078 135.532C91.4078 136.004 91.2878 136.4 91.0478 136.72C90.8158 137.04 90.4838 137.304 90.0518 137.512C90.5558 137.704 90.9478 137.988 91.2278 138.364C91.5158 138.732 91.6598 139.164 91.6598 139.66C91.6598 140.076 91.5558 140.476 91.3478 140.86C91.1478 141.236 90.8358 141.544 90.4118 141.784C89.9958 142.024 89.4638 142.144 88.8158 142.144ZM97.6551 137.464V135.52H94.7511V137.464H97.6551ZM98.6271 135.964V138.256H93.7791V132.844H94.7511V134.74H97.6551V132.844H98.6271V135.16H101.111V132.124H102.107V140.092H101.111V135.964H98.6271ZM96.1671 141.844H102.359V142.648H95.1831V139.312H96.1671V141.844ZM108.08 136.42L107.792 135.676C109.784 135.544 111.428 134.884 111.596 133.816H108.272V133.072H111.656V132.052H112.64V133.072H116.012V133.816H112.7C112.868 134.884 114.488 135.544 116.492 135.676L116.192 136.42C114.392 136.276 112.808 135.724 112.148 134.728C111.488 135.724 109.892 136.276 108.08 136.42ZM116.996 137.656H112.64V138.652H115.76V141.004H109.436V142.024H116.084V142.768H108.476V140.296H114.788V139.384H108.44V138.652H111.644V137.656H107.288V136.9H116.996V137.656ZM127.759 137.452V138.256H123.367V142.9H122.371V138.256H118.027V137.452H125.167C125.503 135.904 125.503 134.764 125.503 133.756V133.612H119.239V132.82H126.463V133.756C126.463 134.764 126.463 135.904 126.163 137.452H127.759ZM131.19 139.612C132.03 139.612 132.582 138.52 132.582 136.756C132.582 135.028 132.03 133.936 131.19 133.936C130.326 133.936 129.786 135.028 129.786 136.756C129.786 138.52 130.326 139.612 131.19 139.612ZM134.826 136.312V132.364H135.762V142.36H134.826V137.116H133.47C133.386 139.228 132.51 140.524 131.19 140.524C129.786 140.524 128.886 139.084 128.886 136.756C128.886 134.464 129.786 133.024 131.19 133.024C132.486 133.024 133.35 134.284 133.47 136.312H134.826ZM136.962 132.124H137.898V142.888H136.962V132.124ZM143.261 133.048V134.98C143.261 136.936 144.485 138.892 146.045 139.636L145.469 140.416C144.245 139.804 143.261 138.52 142.769 137.008C142.301 138.604 141.305 139.96 140.093 140.608L139.493 139.828C141.053 139.048 142.277 136.972 142.277 134.98V133.048H143.261ZM147.377 132.124H148.361V142.9H147.377V136.576H144.881V135.772H147.377V132.124ZM156.002 142.144C155.482 142.144 155.03 142.076 154.646 141.94C154.262 141.796 153.934 141.624 153.662 141.424L154.154 140.524C154.378 140.692 154.638 140.84 154.934 140.968C155.23 141.096 155.59 141.16 156.014 141.16C156.542 141.16 156.958 141.02 157.262 140.74C157.574 140.46 157.73 140.112 157.73 139.696C157.73 139.4 157.65 139.132 157.49 138.892C157.33 138.644 157.082 138.444 156.746 138.292C156.418 138.14 155.99 138.064 155.462 138.064H154.79V137.188H155.414C155.886 137.188 156.274 137.116 156.578 136.972C156.89 136.828 157.122 136.64 157.274 136.408C157.426 136.176 157.502 135.932 157.502 135.676C157.502 135.3 157.358 134.996 157.07 134.764C156.79 134.532 156.442 134.416 156.026 134.416C155.65 134.416 155.314 134.48 155.018 134.608C154.73 134.728 154.494 134.864 154.31 135.016L153.866 134.164C154.106 134.004 154.414 133.848 154.79 133.696C155.166 133.536 155.606 133.456 156.11 133.456C156.638 133.456 157.086 133.552 157.454 133.744C157.822 133.936 158.102 134.192 158.294 134.512C158.494 134.824 158.594 135.164 158.594 135.532C158.594 136.004 158.474 136.4 158.234 136.72C158.002 137.04 157.67 137.304 157.238 137.512C157.742 137.704 158.134 137.988 158.414 138.364C158.702 138.732 158.846 139.164 158.846 139.66C158.846 140.076 158.742 140.476 158.534 140.86C158.334 141.236 158.022 141.544 157.598 141.784C157.182 142.024 156.65 142.144 156.002 142.144ZM162.129 142C162.129 141.08 162.189 140.264 162.309 139.552C162.437 138.832 162.617 138.184 162.849 137.608C163.089 137.032 163.385 136.5 163.737 136.012C164.089 135.524 164.493 135.048 164.949 134.584H160.905V133.6H166.233V134.464C165.681 135 165.221 135.524 164.853 136.036C164.485 136.54 164.189 137.076 163.965 137.644C163.741 138.204 163.581 138.84 163.485 139.552C163.389 140.256 163.341 141.072 163.341 142H162.129ZM168.412 142V141.04H170.128V134.98L168.52 136.192L167.932 135.388L170.416 133.6H171.208V141.04H172.636V142H168.412ZM174.54 142V135.76H175.584V136.804C175.808 136.468 176.092 136.188 176.436 135.964C176.78 135.732 177.172 135.616 177.612 135.616C178.108 135.616 178.512 135.736 178.824 135.976C179.144 136.216 179.368 136.536 179.496 136.936C179.744 136.568 180.036 136.256 180.372 136C180.716 135.744 181.14 135.616 181.644 135.616C182.324 135.616 182.828 135.832 183.156 136.264C183.492 136.688 183.66 137.244 183.66 137.932V142H182.58V138.016C182.58 137.584 182.48 137.236 182.28 136.972C182.08 136.7 181.804 136.564 181.452 136.564C181.092 136.564 180.756 136.7 180.444 136.972C180.14 137.236 179.872 137.548 179.64 137.908V142H178.56V138.016C178.56 137.584 178.46 137.236 178.26 136.972C178.06 136.7 177.784 136.564 177.432 136.564C177.08 136.564 176.748 136.696 176.436 136.96C176.124 137.216 175.852 137.52 175.62 137.872V142H174.54Z" fill="#040404"/>
</svg>
