<svg width="392" height="256" viewBox="0 0 392 256" fill="none" xmlns="http://www.w3.org/2000/svg">
<rect width="393" height="256" fill="url(#paint0_linear_590_3947)"/>
<path d="M87.6659 50.832H88.9779V65.216H87.6659V50.832ZM81.4099 51.936C83.5379 51.936 85.0579 53.888 85.0579 56.944C85.0579 60 83.5379 61.952 81.4099 61.952C79.2819 61.952 77.7619 60 77.7619 56.944C77.7619 53.888 79.2819 51.936 81.4099 51.936ZM81.4099 53.12C80.0019 53.12 79.0099 54.624 79.0099 56.944C79.0099 59.28 80.0019 60.784 81.4099 60.784C82.8019 60.784 83.7939 59.28 83.7939 56.944C83.7939 54.624 82.8019 53.12 81.4099 53.12ZM97.4407 57.952V55.36H93.5687V57.952H97.4407ZM98.7367 55.952V59.008H92.2727V51.792H93.5687V54.32H97.4407V51.792H98.7367V54.88H102.049V50.832H103.377V61.456H102.049V55.952H98.7367ZM95.4567 63.792H103.713V64.864H94.1447V60.416H95.4567V63.792ZM117.983 50.848V61.568H116.719V50.848H117.983ZM107.183 55.44C107.183 56.816 108.079 57.808 109.279 57.808C110.479 57.808 111.359 56.816 111.359 55.44C111.359 54.048 110.479 53.088 109.279 53.088C108.079 53.088 107.183 54.048 107.183 55.44ZM114.015 56H112.511C112.287 57.76 110.975 58.928 109.279 58.928C107.391 58.928 106.015 57.504 106.015 55.44C106.015 53.392 107.391 51.952 109.279 51.952C111.007 51.952 112.303 53.168 112.511 54.928H114.015V51.12H115.247V61.152H114.015V56ZM109.935 63.792H118.399V64.864H108.623V60.192H109.935V63.792ZM128.427 60.784C129.787 60.784 130.747 59.28 130.747 56.944C130.747 54.624 129.787 53.12 128.427 53.12C127.051 53.12 126.091 54.624 126.091 56.944C126.091 59.28 127.051 60.784 128.427 60.784ZM135.099 50.832H136.411V65.216H135.099V57.376H131.979C131.851 60.192 130.427 61.952 128.427 61.952C126.331 61.952 124.843 60 124.843 56.944C124.843 53.888 126.331 51.936 128.427 51.936C130.363 51.936 131.771 53.616 131.979 56.304H135.099V50.832ZM146.97 54.784H149.546V50.848H150.874V61.296H149.546V55.856H146.97V54.784ZM148.186 57.584L148.314 58.656C147.034 58.944 145.978 58.976 144.41 58.976H143.674V52.032H147.658V53.088H144.97V57.904C146.186 57.888 147.098 57.84 148.186 57.584ZM143.082 57.6L143.194 58.672C141.898 58.976 140.842 58.976 139.93 58.976H139.29V52.032H142.906V53.088H140.586V57.904C141.29 57.872 142.138 57.808 143.082 57.6ZM142.586 63.792H151.226V64.864H141.274V60.416H142.586V63.792ZM165.957 58.224L165.253 59.232C163.685 58.64 162.453 57.488 161.829 56.016C161.221 57.664 159.925 58.944 158.245 59.584L157.573 58.528C159.717 57.76 161.157 55.84 161.157 53.808V53.152H157.973V52.08H165.637V53.152H162.469V53.808C162.469 55.728 163.845 57.488 165.957 58.224ZM161.141 60.4V63.792H169.397V64.864H159.829V60.4H161.141ZM168.757 55.216H170.869V56.304H168.757V61.312H167.445V50.832H168.757V55.216ZM177.22 54.368V55.472C177.22 57.872 178.852 60.208 180.98 61.136L180.26 62.16C178.612 61.408 177.252 59.856 176.596 57.968C175.956 59.968 174.596 61.6 172.948 62.4L172.212 61.408C174.34 60.4 175.924 57.984 175.924 55.472V54.368H172.596V53.312H175.908V51.088H177.236V53.312H180.5V54.368H177.22ZM182.372 50.816H183.7V65.168H182.372V50.816ZM188.083 57.184V60.656C190.531 60.656 192.275 60.56 194.339 60.192L194.467 61.28C192.307 61.664 190.483 61.744 187.891 61.744H186.787V56.128H191.891V53.232H186.755V52.16H193.171V57.184H188.083ZM196.755 50.816H198.067V65.2H196.755V57.424H194.019V56.352H196.755V50.816ZM201.346 52.368H207.906C207.906 56.448 206.034 60.144 201.394 62.464L200.674 61.44C204.338 59.6 206.306 56.848 206.61 53.456H201.346V52.368ZM213.922 56.656V57.744H211.618V65.184H210.306V50.832H211.618V56.656H213.922ZM229.325 52.784V52.624H220.845V51.568H230.621V52.784C230.621 53.936 230.621 55.104 230.221 56.576L228.941 56.432C229.325 54.96 229.325 53.904 229.325 52.784ZM225.725 64.144C227.981 64.144 229.421 63.536 229.421 62.544C229.421 61.52 227.981 60.912 225.725 60.912C223.485 60.912 222.045 61.52 222.045 62.544C222.045 63.536 223.485 64.144 225.725 64.144ZM225.725 59.904C228.781 59.904 230.733 60.88 230.733 62.544C230.733 64.176 228.781 65.168 225.725 65.168C222.669 65.168 220.733 64.176 220.733 62.544C220.733 60.88 222.669 59.904 225.725 59.904ZM225.933 57.52H232.237V58.576H219.325V57.52H224.621V54.768H225.933V57.52ZM235.084 55.344C235.084 56.768 236.124 57.792 237.532 57.792C238.924 57.792 239.964 56.768 239.964 55.344C239.964 53.92 238.924 52.896 237.532 52.896C236.124 52.896 235.084 53.92 235.084 55.344ZM244.108 54.144H241.02C241.148 54.512 241.212 54.912 241.212 55.344C241.212 55.76 241.148 56.16 241.02 56.528H244.108V54.144ZM244.108 57.584H240.476C239.804 58.432 238.764 58.944 237.532 58.944C235.42 58.944 233.836 57.44 233.836 55.344C233.836 53.248 235.42 51.744 237.532 51.744C238.764 51.744 239.788 52.256 240.46 53.088H244.108V50.848H245.436V61.44H244.108V57.584ZM237.58 63.792H245.836V64.864H236.252V60.352H237.58V63.792ZM254.411 52.064C252.059 52.064 250.715 52.608 250.715 53.568C250.715 54.528 252.059 55.072 254.411 55.072C256.763 55.072 258.107 54.528 258.107 53.568C258.107 52.608 256.763 52.064 254.411 52.064ZM254.411 56.048C251.259 56.048 249.371 55.184 249.371 53.568C249.371 51.952 251.259 51.072 254.411 51.072C257.563 51.072 259.451 51.952 259.451 53.568C259.451 55.184 257.563 56.048 254.411 56.048ZM250.811 62.544V64H259.675V65.024H249.531V61.584H257.947V60.304H249.483V59.312H259.243V62.544H250.811ZM247.915 57.024H260.907V58.08H247.915V57.024ZM275.158 52.144V53.152H266.694V52.144H270.262V50.688H271.574V52.144H275.158ZM268.742 56.144C268.742 56.992 269.59 57.52 270.918 57.52C272.246 57.52 273.11 56.992 273.11 56.144C273.11 55.28 272.246 54.768 270.918 54.768C269.59 54.768 268.742 55.28 268.742 56.144ZM274.358 56.144C274.358 57.6 272.998 58.496 270.918 58.496C268.854 58.496 267.494 57.6 267.494 56.144C267.494 54.688 268.854 53.792 270.918 53.792C272.998 53.792 274.358 54.688 274.358 56.144ZM269.99 62.64V64.016H278.31V65.024H268.71V61.68H276.486V60.432H268.662V59.456H277.782V62.64H269.99ZM277.782 54.24H279.91V55.328H277.782V58.72H276.47V50.784H277.782V54.24ZM281.381 52.384H285.269C285.269 55.84 284.549 59.2 281.941 61.952L280.917 61.216C283.045 59.008 283.877 56.352 284.021 53.472H281.381V52.384ZM285.749 52.384H289.189C289.189 55.84 288.693 59.792 286.053 62.912L284.997 62.192C287.205 59.648 287.845 56.512 287.957 53.472H285.749V52.384ZM294.373 56.752V57.84H292.245V65.184H290.933V50.832H292.245V56.752H294.373ZM299.78 58.88V62.256H303.78V58.88C303.172 59.024 302.484 59.104 301.764 59.104C301.06 59.104 300.372 59.024 299.78 58.88ZM301.764 52.768C299.46 52.768 297.812 53.824 297.812 55.424C297.812 57.024 299.46 58.08 301.764 58.08C304.068 58.08 305.732 57.024 305.732 55.424C305.732 53.824 304.068 52.768 301.764 52.768ZM305.092 62.256H308.308V63.344H295.268V62.256H298.468V58.384C297.268 57.76 296.548 56.72 296.548 55.424C296.548 53.184 298.724 51.744 301.764 51.744C304.82 51.744 306.98 53.184 306.98 55.424C306.98 56.72 306.276 57.744 305.092 58.368V62.256ZM311.411 60.688C311.357 60.5067 311.315 60.3093 311.283 60.096C311.261 59.8827 311.251 59.6853 311.251 59.504C311.251 58.96 311.352 58.5067 311.555 58.144C311.757 57.7707 312.008 57.4507 312.307 57.184C312.605 56.9067 312.904 56.6507 313.203 56.416C313.501 56.1813 313.752 55.9307 313.955 55.664C314.157 55.3867 314.259 55.0613 314.259 54.688C314.259 54.3147 314.115 53.9893 313.827 53.712C313.539 53.424 313.149 53.28 312.659 53.28C312.221 53.28 311.827 53.3867 311.475 53.6C311.123 53.8133 310.803 54.1067 310.515 54.48L309.475 53.648C309.901 53.1253 310.376 52.7147 310.899 52.416C311.421 52.1173 312.051 51.968 312.787 51.968C313.384 51.968 313.907 52.0853 314.355 52.32C314.813 52.5547 315.171 52.8693 315.427 53.264C315.683 53.6587 315.811 54.096 315.811 54.576C315.811 55.12 315.704 55.5733 315.491 55.936C315.277 56.2987 315.016 56.6187 314.707 56.896C314.397 57.1627 314.083 57.4293 313.763 57.696C313.453 57.952 313.192 58.2453 312.979 58.576C312.765 58.896 312.659 59.3013 312.659 59.792V60.688H311.411ZM312.115 64.192C311.827 64.192 311.576 64.0853 311.363 63.872C311.149 63.6587 311.043 63.408 311.043 63.12C311.043 62.7893 311.139 62.528 311.331 62.336C311.523 62.144 311.784 62.048 312.115 62.048C312.392 62.048 312.637 62.1547 312.851 62.368C313.075 62.5813 313.187 62.832 313.187 63.12C313.187 63.44 313.085 63.7013 312.883 63.904C312.68 64.096 312.424 64.192 312.115 64.192Z" fill="#040404"/>
<path d="M144.029 108.28H148.489C151.769 108.28 154.109 109.42 154.109 112.72C154.109 115.94 151.769 117.42 148.569 117.42H146.349V123H144.029V108.28ZM148.349 115.56C150.769 115.56 151.829 114.66 151.829 112.72C151.829 110.78 150.609 110.14 148.269 110.14H146.349V115.56H148.349ZM156.499 108.28H158.819V123H156.499V108.28ZM167.91 123.26C164.21 123.26 161.37 120.48 161.37 115.68C161.37 110.86 164.27 108 168.01 108C169.85 108 171.29 108.88 172.19 109.86L170.93 111.34C170.15 110.56 169.25 110.02 168.05 110.02C165.49 110.02 163.75 112.16 163.75 115.6C163.75 119.1 165.39 121.24 167.99 121.24C169.35 121.24 170.37 120.64 171.25 119.68L172.49 121.14C171.29 122.5 169.83 123.26 167.91 123.26ZM174.58 108.28H176.9V115.24H176.96L182.56 108.28H185.14L180.58 113.96L185.9 123H183.32L179.16 115.8L176.9 118.56V123H174.58V108.28ZM194.315 110.22H189.995V108.28H200.975V110.22H196.635V123H194.315V110.22ZM208.075 123.26C204.295 123.26 201.675 120.32 201.675 115.58C201.675 110.84 204.295 108 208.075 108C211.855 108 214.495 110.84 214.495 115.58C214.495 120.32 211.855 123.26 208.075 123.26ZM208.075 121.24C210.515 121.24 212.115 119.04 212.115 115.58C212.115 112.12 210.515 110.02 208.075 110.02C205.635 110.02 204.055 112.12 204.055 115.58C204.055 119.04 205.635 121.24 208.075 121.24ZM217.033 108.28H221.493C224.773 108.28 227.113 109.42 227.113 112.72C227.113 115.94 224.773 117.42 221.573 117.42H219.353V123H217.033V108.28ZM221.353 115.56C223.773 115.56 224.833 114.66 224.833 112.72C224.833 110.78 223.613 110.14 221.273 110.14H219.353V115.56H221.353ZM230.723 113.08L229.503 111.6L233.503 108.18H235.303V121.08H238.083V123H230.023V121.08H233.103V112.06C233.103 111.74 233.103 111.4 233.123 111.06L230.723 113.08ZM250.317 115.62C250.317 119.14 249.037 123.16 244.917 123.16C240.797 123.16 239.537 119.14 239.537 115.62C239.537 112.1 240.797 108.06 244.917 108.06C249.097 108.06 250.317 112.22 250.317 115.62ZM248.037 115.62C248.037 113.56 247.677 109.92 244.917 109.92C242.157 109.92 241.797 113.56 241.797 115.62C241.797 117.68 242.177 121.32 244.917 121.32C247.677 121.32 248.037 117.68 248.037 115.62Z" fill="#FF7D0A"/>
<path d="M177.258 140.247H179.641V142.036H177.258V147.036H175.083V135.102H177.258V140.247ZM163.108 144.923C164.834 144.923 166.317 144.907 167.555 144.874V143.783C166.902 143.7 166.333 143.546 165.85 143.32C165.371 143.09 165.002 142.796 164.745 142.436C164.487 142.077 164.36 141.668 164.365 141.207C164.36 140.673 164.533 140.21 164.883 139.819C165.237 139.423 165.734 139.119 166.374 138.907C167.019 138.696 167.767 138.59 168.619 138.59C169.471 138.59 170.217 138.696 170.856 138.907C171.501 139.119 171.998 139.423 172.348 139.819C172.703 140.21 172.882 140.673 172.887 141.207C172.882 141.663 172.751 142.07 172.493 142.43C172.235 142.784 171.869 143.076 171.395 143.307C170.926 143.537 170.368 143.693 169.724 143.776V144.798C171.354 144.715 172.836 144.587 174.171 144.412L174.33 145.931C172.673 146.221 170.965 146.41 169.206 146.497C167.447 146.58 165.493 146.624 163.343 146.628L163.108 144.923ZM163.564 136.497H167.555V134.95H169.724V136.497H173.702V138.093H163.564V136.497ZM165.325 147.796H177.258V152.727H175.083V149.488H165.325V147.796ZM166.443 141.207C166.434 141.576 166.621 141.866 167.003 142.077C167.385 142.289 167.914 142.395 168.591 142.395C169.282 142.395 169.823 142.291 170.214 142.084C170.606 141.872 170.801 141.58 170.801 141.207C170.801 140.83 170.61 140.544 170.228 140.351C169.846 140.153 169.31 140.054 168.619 140.054C167.924 140.054 167.385 140.153 167.003 140.351C166.625 140.549 166.439 140.834 166.443 141.207ZM194.748 147.858H192.573V135.102H194.748V147.858ZM180.37 140.669C180.37 139.826 180.577 139.071 180.991 138.403C181.41 137.731 181.981 137.206 182.704 136.829C183.431 136.451 184.239 136.262 185.128 136.262C186.016 136.262 186.822 136.451 187.545 136.829C188.268 137.206 188.836 137.731 189.251 138.403C189.67 139.071 189.879 139.826 189.879 140.669C189.879 141.525 189.67 142.289 189.251 142.961C188.836 143.634 188.268 144.158 187.545 144.536C186.822 144.909 186.016 145.095 185.128 145.095C184.239 145.095 183.431 144.909 182.704 144.536C181.981 144.158 181.41 143.634 180.991 142.961C180.577 142.285 180.37 141.52 180.37 140.669ZM182.49 140.669C182.49 141.18 182.603 141.626 182.828 142.008C183.054 142.39 183.367 142.685 183.767 142.892C184.168 143.099 184.621 143.203 185.128 143.203C185.62 143.203 186.065 143.099 186.461 142.892C186.857 142.685 187.17 142.39 187.4 142.008C187.63 141.626 187.745 141.18 187.745 140.669C187.745 140.171 187.63 139.732 187.4 139.349C187.17 138.967 186.854 138.673 186.454 138.465C186.058 138.258 185.616 138.155 185.128 138.155C184.626 138.155 184.172 138.258 183.767 138.465C183.367 138.673 183.054 138.967 182.828 139.349C182.603 139.732 182.49 140.171 182.49 140.669ZM183.07 146.559H185.259V150.634H195.245V152.395H183.07V146.559ZM210.663 142.119H213.384V143.907H210.663V152.727H208.515V135.088H210.663V142.119ZM196.74 137.789H200.912V135.337H203.08V137.789H207.155V139.543H196.74V137.789ZM197.555 144.84C197.551 144.039 197.739 143.323 198.122 142.692C198.504 142.061 199.033 141.569 199.71 141.214C200.391 140.86 201.158 140.682 202.01 140.682C202.848 140.682 203.603 140.86 204.275 141.214C204.952 141.569 205.481 142.061 205.863 142.692C206.25 143.323 206.446 144.039 206.45 144.84C206.446 145.641 206.25 146.357 205.863 146.988C205.481 147.618 204.952 148.111 204.275 148.465C203.603 148.815 202.848 148.99 202.01 148.99C201.158 148.99 200.391 148.815 199.71 148.465C199.033 148.111 198.504 147.618 198.122 146.988C197.739 146.357 197.551 145.641 197.555 144.84ZM199.634 144.84C199.629 145.314 199.728 145.731 199.931 146.09C200.134 146.449 200.414 146.725 200.773 146.919C201.137 147.107 201.549 147.199 202.01 147.195C202.461 147.199 202.864 147.107 203.218 146.919C203.577 146.725 203.858 146.449 204.061 146.09C204.263 145.731 204.367 145.314 204.372 144.84C204.367 144.37 204.263 143.956 204.061 143.597C203.858 143.238 203.577 142.959 203.218 142.761C202.864 142.563 202.461 142.464 202.01 142.464C201.554 142.464 201.144 142.563 200.78 142.761C200.417 142.959 200.134 143.238 199.931 143.597C199.728 143.956 199.629 144.37 199.634 144.84ZM228.36 152.727H226.171V135.088H228.36V152.727ZM213.74 147.872C215.268 147.144 216.537 146.327 217.545 145.42C218.558 144.508 219.336 143.498 219.879 142.388C220.422 141.274 220.758 140.038 220.887 138.68H214.637V136.96H223.097C223.093 138.797 222.826 140.487 222.296 142.029C221.771 143.567 220.901 144.978 219.686 146.262C218.475 147.547 216.873 148.663 214.879 149.612L213.74 147.872Z" fill="#040404"/>
<path d="M191.75 177.917L191.565 177.928C191.18 177.973 190.825 178.159 190.567 178.448C190.309 178.738 190.167 179.113 190.167 179.5V187.415L186.072 187.417C185.446 187.417 184.834 187.603 184.313 187.951C183.793 188.299 183.387 188.793 183.147 189.372C182.908 189.95 182.845 190.587 182.967 191.201C183.089 191.815 183.391 192.38 183.833 192.822L194.261 203.25C194.855 203.844 195.66 204.177 196.5 204.177C197.34 204.177 198.145 203.844 198.739 203.25L209.167 192.822C209.61 192.38 209.912 191.815 210.034 191.201C210.156 190.586 210.094 189.95 209.854 189.371L209.746 189.141C209.481 188.622 209.077 188.187 208.58 187.882C208.082 187.578 207.511 187.417 206.928 187.417L202.833 187.415V179.5C202.833 179.08 202.667 178.678 202.37 178.381C202.073 178.084 201.67 177.917 201.25 177.917H191.75ZM201.25 173.167C201.654 173.167 202.042 173.322 202.335 173.599C202.629 173.876 202.805 174.255 202.829 174.658C202.853 175.06 202.722 175.457 202.462 175.767C202.203 176.076 201.836 176.275 201.435 176.323L201.25 176.334H191.75C191.347 176.333 190.958 176.179 190.665 175.902C190.371 175.625 190.195 175.246 190.171 174.843C190.148 174.44 190.279 174.044 190.538 173.734C190.797 173.425 191.164 173.226 191.565 173.178L191.75 173.167H201.25Z" fill="#FF7D0A"/>
<defs>
<linearGradient id="paint0_linear_590_3947" x1="196.5" y1="256" x2="196.5" y2="0" gradientUnits="userSpaceOnUse">
<stop offset="0.600962" stop-color="#FBFBFB"/>
<stop offset="1" stop-color="#FFDAB8"/>
</linearGradient>
</defs>
</svg>
