<svg width="70" height="80" viewBox="0 0 70 80" fill="none" xmlns="http://www.w3.org/2000/svg">
<path d="M35 1.16699C44.0173 1.16699 52.6657 4.74886 59.042 11.125C65.2841 17.3664 68.8539 25.7912 68.9971 34.6172C69.1402 43.4432 65.8451 51.9794 59.8086 58.4199L59.042 59.2129L42.7773 75.4736C40.8034 77.4463 38.1534 78.5955 35.3643 78.6875C32.7493 78.7737 30.1944 77.9251 28.1553 76.3037L27.7549 75.9688L27.2275 75.4736L10.958 59.209C4.58186 52.8327 1 44.1843 1 35.167C1.00006 26.1497 4.58178 17.5012 10.958 11.125C17.3342 4.74877 25.9827 1.16705 35 1.16699Z" stroke="#FF7D0A"/>
</svg>
